<?xml version="1.0" encoding="utf-8"?>
<!-- Generator: Adobe Illustrator 19.1.0, SVG Export Plug-In . SVG Version: 6.00 Build 0)  -->
<svg version="1.1" id="Layer_1" xmlns="http://www.w3.org/2000/svg" xmlns:xlink="http://www.w3.org/1999/xlink" x="0px" y="0px"
	 viewBox="0 0 127.2 126.7" style="enable-background:new 0 0 127.2 126.7;" xml:space="preserve">
<style type="text/css">
	.st0{fill:#FFF11C;stroke:#113D4D;stroke-width:5;stroke-miterlimit:10;}
	.st1{fill:#113D4D;}
	.st2{fill:#1C9CFF;}
	.st3{fill:none;stroke:#113D4D;stroke-width:5;stroke-miterlimit:10;}
</style>
<circle class="st0" cx="64.1" cy="63.8" r="60.1"/>
<circle class="st1" cx="58.1" cy="70.8" r="7"/>
<circle class="st1" cx="88.9" cy="70.8" r="7"/>
<path class="st1" d="M57.8,84c0.3,8,7,14.8,15.3,14.8S88.1,92,88.4,84H57.8z"/>
<circle class="st2" cx="47.5" cy="83.6" r="4.6"/>
<circle class="st2" cx="99.2" cy="83.4" r="4.5"/>
<path class="st3" d="M49.2,6.8c14.9,15.9,38.9,24.9,59.4,18.6"/>
<path class="st3" d="M33.1,13.3C53.8,37.6,88.3,46.7,116.6,37"/>
<path class="st3" d="M21.7,22.5c24.5,27,66.4,36,100,25.2"/>
<path class="st3" d="M7.8,50c10.6-0.3,20.1-7.3,24.6-16.7"/>
<path class="st3" d="M5.1,62.1C20.3,61.7,34,51.7,40.5,38.2"/>
<path class="st3" d="M5.6,72.7c20.6,0.4,37.8-11.5,44-29.9"/>
</svg>
